<?xml version="1.0" encoding="utf-8"?>
<!-- Designed by Vexels.com - 2016 All Rights Reserved - https://vexels.com/terms-and-conditions/  -->

<svg version="1.1" id="Layer_1" xmlns="http://www.w3.org/2000/svg" xmlns:xlink="http://www.w3.org/1999/xlink" x="0px" y="0px"
	 width="1200px" height="1200px" viewBox="0 0 1200 1200" enable-background="new 0 0 1200 1200" xml:space="preserve">
<g>
	<g>
		<defs>
			<path id="SVGID_1_" d="M1064.874,591.846c0-280.25-227.194-507.437-507.437-507.437C277.187,84.409,50,311.596,50,591.846
				c0,280.249,227.187,507.437,507.437,507.437C837.68,1099.283,1064.874,872.096,1064.874,591.846z"/>
		</defs>
		<use xlink:href="#SVGID_1_"  overflow="visible" fill="#B8C933"/>
		<clipPath id="SVGID_2_">
			<use xlink:href="#SVGID_1_"  overflow="visible"/>
		</clipPath>
		<path opacity="0.2" clip-path="url(#SVGID_2_)" fill="#211915" d="M294.577,834.359l152.502,281.232l467.608-35.773
			c0,0,233.763-167.665,235.305-172.281c1.528-4.616-236.017-474.174-236.017-474.174l-192.165-65.07l-18.994-39.455L502.61,464.745
			l-62.84-68.687l7.309,49.689L294.577,834.359z"/>
	</g>
	<g>
		<g>
			<path fill-rule="evenodd" clip-rule="evenodd" fill="#BE4C27" d="M669.972,360.538c128.377,8.557,185.354,79.826,184.669,178.3
				c-0.678,98.482-84.483,178.307-187.172,178.307c-102.675,0-185.36-79.826-184.655-178.307
				C483.499,440.364,541.588,351.974,669.972,360.538z"/>
			<path fill-rule="evenodd" clip-rule="evenodd" fill="#CF6E28" d="M707.027,375.331c87.166,0,155.49,76.511,152.579,170.912
				c-2.904,94.381-75.943,170.902-163.116,170.902c-87.187,0-155.497-76.521-152.585-170.902
				C546.802,451.842,619.827,375.331,707.027,375.331z"/>
			<path fill-rule="evenodd" clip-rule="evenodd" fill="#945E37" d="M685.039,381.953l-19.651,2.718
				c0-13.065,12.951-54.421,25.522-60.838c4.425-2.271,16.069,4.961,14.866,9.283c-1.964,7.005-15.952,31.545-18.829,44.198
				C686.768,378.15,685.724,381.506,685.039,381.953z"/>
			<path fill-rule="evenodd" clip-rule="evenodd" fill="#538F4C" d="M691.463,350.598c3.782-2.973,36.682-3.44,36.786,0.605
				c0.035,1.494-6.438,11.686-7.938,10.517c-5.676-4.429-27.596-3.969-29.228-6.278
				C690.288,354.342,691.028,350.947,691.463,350.598z"/>
			<path fill-rule="evenodd" clip-rule="evenodd" fill="#5E9B3C" d="M710.471,352.254c-6.894,19.731,7.177,65.692,12.072,75.832
				c29.056,60.057,101.825,109.103,172.569,103.267c6.327-0.525,33.861-4.401,37.132-8.249c8.021-9.449-5.145-60.625-11.963-75.055
				C885.363,374.108,783.158,322.207,710.471,352.254z"/>
		</g>
		<g>
			<path fill-rule="evenodd" clip-rule="evenodd" fill="#BE4C27" d="M332.649,523.602l-35.396-42.452
				c45.678-61.34,291.721-40.541,322.754-8.99l-107.819,48.963L332.649,523.602z"/>
			<path fill-rule="evenodd" clip-rule="evenodd" fill="#945E37" d="M451.684,509.178l28.641,4.387
				c-0.885-25.688-22.411-106.35-41.066-118.379c-6.548-4.221-22.908,10.587-20.869,19.033
				c3.298,13.636,25.204,61.202,30.203,85.973C448.925,501.814,450.647,508.366,451.684,509.178z"/>
			<path fill-rule="evenodd" clip-rule="evenodd" fill="#DFA35E" d="M466.164,508.106c40.983,0,94.17-58.954,128.888-51.033
				c100.068,22.86,121.525,125.099,121.525,212.462c0,125.711-111.983,234.883-246.265,234.883
				c-134.309,0-243.173-101.915-243.173-227.647c0-67.3-2.061-157.453,72.292-204.116c20.82-13.059,49.917-13.622,79.767-1.048
				C407.334,483.442,435.892,508.106,466.164,508.106z"/>
			<path fill-rule="evenodd" clip-rule="evenodd" fill="#E7C756" d="M466.744,525.576c36.813,0,84.621-52.956,115.806-45.834
				c89.925,20.523,109.195,112.391,109.195,190.889c0,112.961-100.614,211.059-221.282,211.059
				c-120.674,0-218.495-91.587-218.495-204.549c0-60.475-1.847-141.476,64.956-183.4c18.704-11.741,44.863-12.253,71.677-0.954
				C413.875,503.426,439.535,525.576,466.744,525.576z"/>
			<path fill-rule="evenodd" clip-rule="evenodd" fill="#65181A" d="M470.001,547.108c22.845,0,93.146,63.338,94.944,135.741
				c1.812,72.4-64.728,123.651-87.58,123.651c-22.839,0-89.137-51.251-90.927-123.651
				C384.647,610.446,447.148,547.108,470.001,547.108z"/>
		</g>
	</g>
</g>
</svg>
