<?xml version="1.0" encoding="utf-8"?>
<!-- Designed by Vexels.com - 2016 All Rights Reserved - https://vexels.com/terms-and-conditions/  -->

<svg version="1.1" id="Layer_1" xmlns="http://www.w3.org/2000/svg" xmlns:xlink="http://www.w3.org/1999/xlink" x="0px" y="0px"
	 width="1200px" height="1200px" viewBox="0 0 1200 1200" enable-background="new 0 0 1200 1200" xml:space="preserve">
<g>
	<circle fill="#F49913" cx="599.296" cy="586.346" r="536.346"/>
	<g>
		<defs>
			<path id="SVGID_1_" d="M1137.05,586.346C1137.05,290.132,896.926,50,600.704,50C304.496,50,64.357,290.132,64.357,586.346
				c0,296.215,240.139,536.346,536.346,536.346C896.926,1122.693,1137.05,882.562,1137.05,586.346z"/>
		</defs>
		<clipPath id="SVGID_2_">
			<use xlink:href="#SVGID_1_"  overflow="visible"/>
		</clipPath>
		<path opacity="0.2" clip-path="url(#SVGID_2_)" d="M354.896,785.069L554.166,1150l424.141-47.883
			c0,0,66.825-150.315,68.451-155.194c1.626-4.878-167.264-346.208-167.264-346.208l-130.46-83.124l-55.927-91.778l-293.971,50.189
			L354.896,785.069z"/>
	</g>
	<g>
		<g>
			<path fill-rule="evenodd" clip-rule="evenodd" fill="#A85432" d="M654.222,404.417l36.422,18.152
				c17.293-22.663,45.655-103.263,28.55-123.002c-6.011-6.945-39.291-2.345-42.551,5.989c-5.284,13.47-9.28,65.597-20.2,89.534
				C655.731,396.646,653.402,403.197,654.222,404.417z"/>
			<path fill-rule="evenodd" clip-rule="evenodd" fill="#294D35" d="M768.546,358.293c-15.479-27.158-52.096-42.106-83.789-38.987
				c-29.402,2.893-62.291,35.89-67.512,54.176c-19.466,66.465-38.056,112.909-57.522,179.381
				c-70.248,149.057,40.183,303.899,145.477,304.369c48.07,2.634,99.502-28.495,132.734-75.627
				c28.628-40.581,42.794-93.294,40.667-143.546c-1.743-41.167-21.107-74.149-38.33-109.86
				C809.94,465.355,792.656,399.507,768.546,358.293z"/>
			<path fill-rule="evenodd" clip-rule="evenodd" fill="#294D35" d="M662.071,348.333c8.177,0.391,15.166-5.957,15.564-14.118
				c0.392-8.177-5.948-15.167-14.126-15.565c-8.177-0.399-15.166,5.949-15.565,14.119
				C647.554,340.946,653.894,347.935,662.071,348.333z"/>
			<path fill-rule="evenodd" clip-rule="evenodd" fill="#294D35" d="M739.332,314.132c-8.177,0.664-14.268,7.841-13.595,16.018
				c0.672,8.177,7.841,14.275,16.018,13.603c8.185-0.672,14.267-7.841,13.602-16.026
				C754.685,319.549,747.509,313.468,739.332,314.132z"/>
			<path fill-rule="evenodd" clip-rule="evenodd" fill="#294D35" d="M640.323,363.453c8.169,0.391,15.166-5.949,15.557-14.119
				c0.391-8.184-5.949-15.174-14.127-15.572c-8.177-0.391-15.158,5.957-15.564,14.134
				C625.797,356.065,632.146,363.054,640.323,363.453z"/>
			<path fill-rule="evenodd" clip-rule="evenodd" fill="#294D35" d="M761.581,328.524c-8.185,0.656-14.268,7.833-13.603,16.01
				c0.665,8.177,7.841,14.275,16.018,13.602c8.185-0.664,14.275-7.841,13.602-16.026
				C776.927,333.934,769.758,327.851,761.581,328.524z"/>
			<path fill-rule="evenodd" clip-rule="evenodd" fill="#294D35" d="M625.735,384.091c8.177,0.399,15.167-5.949,15.557-14.126
				c0.391-8.169-5.941-15.159-14.119-15.565c-8.177-0.391-15.166,5.957-15.564,14.135C611.21,376.711,617.558,383.7,625.735,384.091
				z"/>
			<path fill-rule="evenodd" clip-rule="evenodd" fill="#294D35" d="M776.833,348.662c-8.176,0.672-14.259,7.841-13.586,16.026
				c0.656,8.177,7.833,14.259,16.018,13.587c8.177-0.664,14.268-7.834,13.595-16.01C792.194,354.08,785.026,347.99,776.833,348.662z
				"/>
			<path fill-rule="evenodd" clip-rule="evenodd" fill="#294D35" d="M619.45,407.075c8.177,0.391,15.166-5.949,15.556-14.134
				c0.391-8.161-5.941-15.151-14.118-15.549c-8.177-0.399-15.167,5.949-15.557,14.127
				C604.933,399.687,611.273,406.676,619.45,407.075z"/>
			<path fill-rule="evenodd" clip-rule="evenodd" fill="#294D35" d="M783.884,371.427c-8.177,0.656-14.267,7.833-13.594,16.01
				c0.672,8.177,7.84,14.275,16.026,13.602c8.177-0.672,14.267-7.841,13.594-16.026
				C799.238,376.837,792.062,370.754,783.884,371.427z"/>
			<path fill-rule="evenodd" clip-rule="evenodd" fill="#294D35" d="M610.288,429.261c8.177,0.399,15.166-5.941,15.557-14.119
				c0.399-8.177-5.941-15.166-14.119-15.556c-8.176-0.391-15.166,5.949-15.556,14.118
				C595.771,421.881,602.118,428.87,610.288,429.261z"/>
			<path fill-rule="evenodd" clip-rule="evenodd" fill="#294D35" d="M793.781,393.3c-8.177,0.672-14.267,7.841-13.602,16.018
				c0.672,8.185,7.849,14.267,16.026,13.594c8.176-0.656,14.267-7.841,13.602-16.018C809.135,398.725,801.958,392.628,793.781,393.3
				z"/>
			<path fill-rule="evenodd" clip-rule="evenodd" fill="#294D35" d="M602.635,453.808c8.177,0.391,15.166-5.957,15.564-14.134
				c0.391-8.177-5.957-15.166-14.126-15.557c-8.177-0.391-15.167,5.949-15.565,14.119
				C588.117,446.413,594.465,453.401,602.635,453.808z"/>
			<path fill-rule="evenodd" clip-rule="evenodd" fill="#294D35" d="M802.247,417.566c-8.185,0.664-14.267,7.841-13.594,16.026
				c0.664,8.177,7.841,14.26,16.026,13.587c8.176-0.672,14.259-7.833,13.586-16.018
				C817.593,422.983,810.425,416.894,802.247,417.566z"/>
			<path fill-rule="evenodd" clip-rule="evenodd" fill="#294D35" d="M594.997,478.011c8.177,0.391,15.166-5.941,15.557-14.118
				c0.391-8.185-5.949-15.167-14.119-15.572c-8.177-0.391-15.166,5.957-15.565,14.134
				C580.479,470.624,586.819,477.62,594.997,478.011z"/>
			<path fill-rule="evenodd" clip-rule="evenodd" fill="#294D35" d="M810.683,441.503c-8.177,0.672-14.26,7.849-13.595,16.018
				c0.672,8.185,7.849,14.275,16.018,13.602c8.184-0.664,14.275-7.841,13.602-16.018S818.868,440.831,810.683,441.503z"/>
			<path fill-rule="evenodd" clip-rule="evenodd" fill="#294D35" d="M584.779,502.09c8.169,0.399,15.167-5.941,15.557-14.119
				c0.399-8.177-5.949-15.166-14.127-15.557c-8.176-0.399-15.158,5.949-15.556,14.119
				C570.254,494.71,576.602,501.698,584.779,502.09z"/>
			<path fill-rule="evenodd" clip-rule="evenodd" fill="#294D35" d="M821.706,465.237c-8.177,0.664-14.259,7.841-13.602,16.018
				c0.672,8.185,7.849,14.267,16.025,13.602c8.177-0.664,14.275-7.841,13.603-16.026
				C837.059,470.663,829.883,464.565,821.706,465.237z"/>
			<path fill-rule="evenodd" clip-rule="evenodd" fill="#294D35" d="M577.11,526.949c8.169,0.399,15.166-5.949,15.557-14.118
				c0.391-8.177-5.957-15.167-14.127-15.565c-8.177-0.399-15.166,5.949-15.564,14.127C562.585,519.57,568.933,526.55,577.11,526.949
				z"/>
			<path fill-rule="evenodd" clip-rule="evenodd" fill="#294D35" d="M830.196,489.816c-8.177,0.672-14.26,7.848-13.595,16.026
				s7.841,14.275,16.018,13.602c8.177-0.672,14.275-7.848,13.602-16.026C845.549,495.241,838.372,489.151,830.196,489.816z"/>
			<path fill-rule="evenodd" clip-rule="evenodd" fill="#294D35" d="M566.854,551.684c8.177,0.391,15.166-5.957,15.564-14.135
				c0.391-8.169-5.957-15.166-14.126-15.556c-8.177-0.391-15.167,5.949-15.565,14.126
				C552.336,544.296,558.676,551.277,566.854,551.684z"/>
			<path fill-rule="evenodd" clip-rule="evenodd" fill="#294D35" d="M841.265,514.191c-8.177,0.672-14.26,7.848-13.595,16.026
				c0.664,8.177,7.841,14.268,16.018,13.602c8.177-0.672,14.275-7.848,13.602-16.026
				C856.618,519.616,849.442,513.527,841.265,514.191z"/>
			<path fill-rule="evenodd" clip-rule="evenodd" fill="#294D35" d="M558.411,579.084c8.177,0.399,15.166-5.949,15.564-14.126
				c0.399-8.169-5.949-15.167-14.126-15.557c-8.177-0.391-15.167,5.941-15.557,14.119
				C543.893,571.697,550.233,578.685,558.411,579.084z"/>
			<path fill-rule="evenodd" clip-rule="evenodd" fill="#294D35" d="M850.615,541.302c-8.177,0.672-14.259,7.849-13.602,16.026
				c0.68,8.177,7.849,14.268,16.026,13.603c8.177-0.672,14.275-7.849,13.602-16.026S858.792,540.638,850.615,541.302z"/>
			<path fill-rule="evenodd" clip-rule="evenodd" fill="#294D35" d="M550.742,603.944c8.169,0.399,15.166-5.957,15.556-14.127
				c0.399-8.177-5.949-15.166-14.126-15.556c-8.169-0.407-15.159,5.941-15.557,14.119
				C536.224,596.556,542.564,603.545,550.742,603.944z"/>
			<path fill-rule="evenodd" clip-rule="evenodd" fill="#294D35" d="M859.113,565.896c-8.185,0.664-14.268,7.833-13.595,16.01
				c0.672,8.184,7.833,14.275,16.018,13.602c8.185-0.664,14.267-7.833,13.594-16.026
				C874.458,571.305,867.297,565.224,859.113,565.896z"/>
			<path fill-rule="evenodd" clip-rule="evenodd" fill="#294D35" d="M542.392,629.413c8.177,0.399,15.166-5.949,15.564-14.126
				c0.391-8.177-5.957-15.174-14.126-15.565c-8.177-0.391-15.159,5.949-15.564,14.127
				C527.875,622.026,534.223,629.015,542.392,629.413z"/>
			<path fill-rule="evenodd" clip-rule="evenodd" fill="#294D35" d="M868.298,591.069c-8.177,0.672-14.259,7.841-13.594,16.026
				c0.664,8.17,7.841,14.26,16.018,13.595c8.193-0.664,14.275-7.849,13.602-16.018C883.652,596.486,876.483,590.396,868.298,591.069
				z"/>
			<path fill-rule="evenodd" clip-rule="evenodd" fill="#294D35" d="M542.376,656.572c8.17,0.399,15.159-5.949,15.549-14.119
				c0.406-8.184-5.942-15.166-14.118-15.564c-8.169-0.399-15.167,5.957-15.557,14.126
				C527.86,649.185,534.192,656.181,542.376,656.572z"/>
			<path fill-rule="evenodd" clip-rule="evenodd" fill="#294D35" d="M869.228,618.219c-8.185,0.672-14.267,7.833-13.594,16.018
				c0.664,8.185,7.833,14.267,16.01,13.602c8.185-0.672,14.275-7.849,13.602-16.018
				C884.574,623.637,877.406,617.547,869.228,618.219z"/>
			<path fill-rule="evenodd" clip-rule="evenodd" fill="#294D35" d="M542.384,683.097c8.177,0.391,15.167-5.949,15.557-14.127
				c0.398-8.177-5.942-15.166-14.119-15.548c-8.177-0.399-15.166,5.933-15.564,14.11
				C527.867,675.709,534.207,682.698,542.384,683.097z"/>
			<path fill-rule="evenodd" clip-rule="evenodd" fill="#294D35" d="M870.096,644.728c-8.177,0.664-14.259,7.833-13.594,16.026
				c0.672,8.169,7.841,14.259,16.018,13.586c8.176-0.664,14.275-7.841,13.602-16.018
				C885.45,650.138,878.281,644.048,870.096,644.728z"/>
			<path fill-rule="evenodd" clip-rule="evenodd" fill="#294D35" d="M543.62,710.974c8.177,0.391,15.167-5.957,15.557-14.134
				c0.407-8.161-5.941-15.166-14.119-15.557c-8.177-0.399-15.166,5.949-15.556,14.127
				C529.102,703.579,535.442,710.575,543.62,710.974z"/>
			<path fill-rule="evenodd" clip-rule="evenodd" fill="#294D35" d="M869.784,672.621c-8.177,0.672-14.26,7.849-13.595,16.026
				c0.672,8.17,7.841,14.268,16.026,13.595c8.184-0.664,14.267-7.849,13.594-16.018
				C885.137,678.046,877.968,671.957,869.784,672.621z"/>
			<path fill-rule="evenodd" clip-rule="evenodd" fill="#294D35" d="M550.796,736.545c8.177,0.391,15.166-5.949,15.564-14.126
				c0.391-8.177-5.957-15.166-14.126-15.564c-8.177-0.391-15.166,5.949-15.564,14.118
				C536.279,729.158,542.619,736.146,550.796,736.545z"/>
			<path fill-rule="evenodd" clip-rule="evenodd" fill="#294D35" d="M863.467,698.419c-8.177,0.665-14.259,7.841-13.587,16.026
				c0.657,8.177,7.841,14.267,16.01,13.587c8.185-0.657,14.275-7.833,13.603-16.018
				C878.821,703.837,871.652,697.754,863.467,698.419z"/>
			<path fill-rule="evenodd" clip-rule="evenodd" fill="#294D35" d="M560.545,762.242c8.169,0.399,15.166-5.949,15.564-14.134
				c0.391-8.162-5.957-15.159-14.126-15.549c-8.169-0.399-15.167,5.941-15.557,14.119
				C546.027,754.854,552.376,761.843,560.545,762.242z"/>
			<path fill-rule="evenodd" clip-rule="evenodd" fill="#294D35" d="M854.586,724.428c-8.184,0.664-14.275,7.833-13.602,16.026
				c0.672,8.185,7.841,14.26,16.018,13.595c8.185-0.664,14.267-7.841,13.602-16.018C869.94,729.845,862.763,723.756,854.586,724.428
				z"/>
			<path fill-rule="evenodd" clip-rule="evenodd" fill="#294D35" d="M576.109,788.219c8.177,0.399,15.166-5.957,15.557-14.126
				c0.391-8.169-5.941-15.167-14.119-15.565c-8.177-0.399-15.166,5.957-15.557,14.127
				C561.585,780.832,567.932,787.82,576.109,788.219z"/>
			<path fill-rule="evenodd" clip-rule="evenodd" fill="#294D35" d="M839.889,750.906c-8.177,0.672-14.26,7.841-13.595,16.026
				c0.672,8.177,7.841,14.26,16.026,13.603c8.177-0.672,14.267-7.849,13.594-16.026
				C855.243,756.323,848.074,750.242,839.889,750.906z"/>
			<path fill-rule="evenodd" clip-rule="evenodd" fill="#294D35" d="M591.385,813.212c8.177,0.391,15.174-5.949,15.573-14.127
				c0.391-8.177-5.957-15.166-14.126-15.556c-8.177-0.391-15.166,5.949-15.565,14.119
				C576.875,805.824,583.216,812.813,591.385,813.212z"/>
			<path fill-rule="evenodd" clip-rule="evenodd" fill="#294D35" d="M825.442,776.407c-8.177,0.657-14.259,7.841-13.587,16.01
				c0.664,8.185,7.841,14.268,16.01,13.61c8.185-0.68,14.275-7.848,13.603-16.034C840.803,781.825,833.635,775.735,825.442,776.407z
				"/>
			<path fill-rule="evenodd" clip-rule="evenodd" fill="#294D35" d="M612.07,833.616c8.177,0.399,15.166-5.957,15.557-14.119
				c0.399-8.176-5.941-15.166-14.119-15.564c-8.177-0.399-15.166,5.957-15.557,14.119
				C597.553,826.229,603.901,833.217,612.07,833.616z"/>
			<path fill-rule="evenodd" clip-rule="evenodd" fill="#294D35" d="M805.461,797.483c-8.177,0.672-14.267,7.841-13.602,16.018
				c0.672,8.185,7.841,14.275,16.026,13.595c8.177-0.664,14.26-7.833,13.595-16.01C820.815,802.901,813.638,796.811,805.461,797.483
				z"/>
			<path fill-rule="evenodd" clip-rule="evenodd" fill="#294D35" d="M634.147,852.151c8.161,0.391,15.159-5.949,15.549-14.126
				c0.399-8.177-5.949-15.166-14.126-15.564c-8.17-0.383-15.159,5.957-15.557,14.126
				C619.622,844.772,625.97,851.752,634.147,852.151z"/>
			<path fill-rule="evenodd" clip-rule="evenodd" fill="#294D35" d="M784.025,816.738c-8.177,0.672-14.275,7.849-13.602,16.026
				c0.672,8.169,7.848,14.267,16.025,13.594c8.177-0.664,14.26-7.849,13.602-16.018
				C799.378,822.163,792.202,816.065,784.025,816.738z"/>
			<path fill-rule="evenodd" clip-rule="evenodd" fill="#294D35" d="M658.366,866.262c8.169,0.391,15.159-5.957,15.557-14.126
				c0.391-8.169-5.949-15.166-14.127-15.564c-8.184-0.399-15.166,5.957-15.564,14.126
				C643.841,858.866,650.188,865.863,658.366,866.262z"/>
			<path fill-rule="evenodd" clip-rule="evenodd" fill="#294D35" d="M760.291,831.646c-8.184,0.672-14.275,7.841-13.602,16.018
				c0.672,8.185,7.841,14.275,16.026,13.594c8.177-0.656,14.259-7.833,13.586-16.018
				C775.637,837.063,768.468,830.973,760.291,831.646z"/>
			<path fill-rule="evenodd" clip-rule="evenodd" fill="#294D35" d="M683.726,870.069c8.177,0.399,15.166-5.941,15.556-14.126
				c0.399-8.177-5.949-15.166-14.118-15.557c-8.177-0.399-15.167,5.949-15.557,14.134
				C669.209,862.682,675.549,869.686,683.726,870.069z"/>
			<path fill-rule="evenodd" clip-rule="evenodd" fill="#294D35" d="M735.064,836.297c-8.185,0.672-14.268,7.841-13.603,16.034
				c0.665,8.169,7.841,14.252,16.026,13.587s14.267-7.849,13.594-16.01C750.417,841.714,743.24,835.625,735.064,836.297z"/>
			<path fill-rule="evenodd" clip-rule="evenodd" fill="#294D35" d="M710.783,872.352c8.176,0.399,15.166-5.949,15.564-14.127
				c0.391-8.169-5.956-15.166-14.134-15.564c-8.177-0.399-15.167,5.957-15.557,14.127
				C696.265,864.964,702.605,871.953,710.783,872.352z"/>
			<path fill-rule="evenodd" clip-rule="evenodd" fill="#294D35" d="M738.199,867.208c8.169,0.391,15.166-5.949,15.556-14.126
				c0.391-8.169-5.941-15.159-14.118-15.557c-8.177-0.399-15.167,5.949-15.565,14.119
				C723.673,859.828,730.021,866.809,738.199,867.208z"/>
		</g>
		<g>
			<path fill-rule="evenodd" clip-rule="evenodd" fill="#A85432" d="M489.209,416.706l31.505,21.624
				c13.681-31.004,34.342-139.152,19.091-164.11c-5.363-8.775-33.287-0.575-35.695,10.616c-3.909,18.109-5.16,87.146-13.4,119.425
				C490.163,406.363,488.467,415.15,489.209,416.706z"/>
			<path fill-rule="evenodd" clip-rule="evenodd" fill="#AABB4A" d="M607.982,343.909c-15.034-31.45-54.77-51.119-90.496-50.314
				c-33.17,0.751-72.766,34.632-80.161,54.504c-27.4,72.164-52.135,122.189-79.543,194.345
				c-91.247,159.626,19.293,340.814,137.135,350.164c53.582,6.949,113.793-23.297,154.983-72.852
				c35.469-42.66,55.794-99.994,57.654-155.984c1.517-45.858-17.37-84.101-33.63-125.19
				C645.279,466.254,631.489,391.689,607.982,343.909z"/>
			<path fill-rule="evenodd" clip-rule="evenodd" fill="#F0E39F" d="M593.871,382.168c-12.727-26.635-46.382-43.294-76.636-42.606
				c-28.081,0.633-61.61,29.332-67.88,46.147c-23.202,61.11-44.137,103.465-67.34,164.575
				c-77.268,135.158,16.323,288.585,116.106,296.496c45.373,5.894,96.359-19.724,131.242-61.681
				c30.035-36.125,47.241-84.68,48.812-132.085c1.298-38.822-14.697-71.218-28.471-106.006
				C625.454,485.766,613.774,422.616,593.871,382.168z"/>
			<path fill-rule="evenodd" clip-rule="evenodd" fill="#8C4E42" d="M528.532,503.137c41.652,0,75.416,53.707,75.416,119.953
				s-24.939,119.155-83.445,119.155c-58.499,0-89.863-30.442-89.065-109.524C432.243,553.638,486.872,503.137,528.532,503.137z"/>
		</g>
	</g>
</g>
</svg>
